HIERARCHY
ROOT Pelvis
{
	OFFSET 0.000000 0.000000 0.000000
	CHANNELS 6 Xposition Yposition Zposition Xrotation Yrotation Zrotation
	JOINT LeftUpLeg_virtual
	{
		OFFSET 0.000000 0.000000 0.000000
		CHANNELS 3 Xrotation Yrotation Zrotation
		JOINT LeftUpLeg
		{
			OFFSET 18.735201 -5.666702 -4.541200
			CHANNELS 3 Xrotation Yrotation Zrotation
			JOINT LeftLeg
			{
				OFFSET -0.021200 -31.938179 0.493100
				CHANNELS 3 Xrotation Yrotation Zrotation
				JOINT LeftFoot
				{
					OFFSET 0.021200 -31.938179 -4.336299
					CHANNELS 3 Xrotation Yrotation Zrotation
					JOINT LeftToeBase
					{
						OFFSET 0.943001 -26.722000 15.023500
						CHANNELS 3 Xrotation Yrotation Zrotation
						End Site
						{
							OFFSET 0 0 0
						}
					}
				}
			}
		}
	}
	JOINT RightUpLeg_virtual
	{
		OFFSET 0.000000 0.000000 0.000000
		CHANNELS 3 Xrotation Yrotation Zrotation
		JOINT RightUpLeg
		{
			OFFSET -18.735201 -5.666702 -4.541200
			CHANNELS 3 Xrotation Yrotation Zrotation
			JOINT RightLeg
			{
				OFFSET 0.018946 -31.938133 0.493100
				CHANNELS 3 Xrotation Yrotation Zrotation
				JOINT RightFoot
				{
					OFFSET -0.018946 -31.938126 -4.336299
					CHANNELS 3 Xrotation Yrotation Zrotation
					JOINT RightToeBase
					{
						OFFSET -0.943001 -26.722004 15.023500
						CHANNELS 3 Xrotation Yrotation Zrotation
						End Site
						{
							OFFSET 0 0 0
						}
					}
				}
			}
		}
	}
	JOINT Hips_virtual
	{
		OFFSET 0.000000 0.000000 0.000000
		CHANNELS 3 Xrotation Yrotation Zrotation
		JOINT Hips
		{
			OFFSET -0.000000 -0.000000 -0.000000
			CHANNELS 3 Xrotation Yrotation Zrotation
			JOINT Spine
			{
				OFFSET 0.000000 10.199997 -0.299500
				CHANNELS 3 Xrotation Yrotation Zrotation
				JOINT Spine1
				{
					OFFSET 0.000000 11.900002 -1.516600
					CHANNELS 3 Xrotation Yrotation Zrotation
					JOINT Spine2
					{
						OFFSET 0.000000 13.600006 -2.842500
						CHANNELS 3 Xrotation Yrotation Zrotation
						JOINT Neck_virtual
						{
							OFFSET 0.000000 0.000000 0.000000
							CHANNELS 3 Xrotation Yrotation Zrotation
							JOINT Neck
							{
								OFFSET 0.000000 9.624100 -2.890100
								CHANNELS 3 Xrotation Yrotation Zrotation
								JOINT Head
								{
									OFFSET 0.000000 14.068802 -1.351900
									CHANNELS 3 Xrotation Yrotation Zrotation
									End Site
									{
										OFFSET 0 0 0
									}
								}
							}
						}
						JOINT LeftShoulder_virtual
						{
							OFFSET 0.000000 0.000000 0.000000
							CHANNELS 3 Xrotation Yrotation Zrotation
							JOINT LeftShoulder
							{
								OFFSET 15.263000 10.923401 -0.547700
								CHANNELS 3 Xrotation Yrotation Zrotation
								JOINT LeftArm
								{
									OFFSET 25.438599 -2.830597 -13.032500
									CHANNELS 3 Xrotation Yrotation Zrotation
									JOINT LeftForeArm
									{
										OFFSET 29.960503 0.000000 0.000000
										CHANNELS 3 Xrotation Yrotation Zrotation
										JOINT LeftHand
										{
											OFFSET 27.849251 0.000000 0.000000
											CHANNELS 3 Xrotation Yrotation Zrotation
											End Site
											{
												OFFSET 0 0 0
											}
										}
									}
								}
							}
						}
						JOINT RightShoulder_virtual
						{
							OFFSET 0.000000 0.000000 0.000000
							CHANNELS 3 Xrotation Yrotation Zrotation
							JOINT RightShoulder
							{
								OFFSET -15.263000 10.923401 -0.547700
								CHANNELS 3 Xrotation Yrotation Zrotation
								JOINT RightArm
								{
									OFFSET -25.438599 -2.830597 -13.032500
									CHANNELS 3 Xrotation Yrotation Zrotation
									JOINT RightForeArm
									{
										OFFSET -29.960503 0.000000 0.000000
										CHANNELS 3 Xrotation Yrotation Zrotation
										JOINT RightHand
										{
											OFFSET -27.849251 0.000000 0.000000
											CHANNELS 3 Xrotation Yrotation Zrotation
											End Site
											{
												OFFSET 0 0 0
											}
										}
									}
								}
							}
						}
					}
				}
			}
		}
	}
}
MOTION
Frames: 5
Frame Time: 0.03333333
3.006099 83.355873 0.323492 0.000000 0.000000 0.000000 18.909363 30.637135 -4.952022 -23.933823 21.563378 20.263493 46.857816 -2.954448 0.814690 -7.024920 -3.375697 -6.313877 0.000000 0.000000 0.000000 -3.948499 54.787597 -1.000052 -36.613615 13.026784 -13.865451 42.031215 11.403875 -1.329739 -12.261896 7.888480 17.550518 0.000000 0.000000 0.000000 1.359705 20.752579 -1.064976 3.360326 42.219349 -5.120045 3.435109 -2.023965 -0.703478 1.288862 -0.526390 -0.603137 0.000000 0.000000 0.000000 2.101709 -2.077113 -0.467425 -1.243676 -1.002325 0.274980 0.000000 0.000000 0.000000 3.700981 -0.770240 -0.269171 0.590472 -8.798362 -3.903134 -26.600471 -41.797308 -62.085675 95.895234 -89.007515 91.948054 0.000000 0.000000 0.000000 2.605142 -1.200686 -0.056587 0.078226 -1.280795 5.036362 -26.453420 17.939193 44.467848 -43.199208 83.233778 41.423004 0.000000 0.000000 0.000000 
3.067785 83.835693 0.267604 0.000000 0.000000 0.000000 18.793984 30.385012 -4.934425 -23.900184 21.488520 20.138184 47.070098 -2.849927 0.826467 -6.740515 -3.304081 -6.237038 0.000000 0.000000 0.000000 -4.070533 54.632866 -0.895878 -36.689355 12.974695 -13.807743 42.225643 11.313411 -1.396829 -12.019833 7.900608 17.393722 0.000000 0.000000 0.000000 1.388902 20.645661 -1.071197 3.289191 41.688432 -5.021897 3.417506 -2.016291 -0.766115 1.287683 -0.507995 -0.620596 0.000000 0.000000 0.000000 2.154370 -2.070645 -0.469050 -1.237861 -1.001367 0.295059 0.000000 0.000000 0.000000 3.695358 -0.742398 -0.272470 0.552407 -8.684033 -3.805271 -26.784278 -42.040726 -62.066885 114.903098 -88.856704 110.998934 0.000000 0.000000 0.000000 2.633580 -1.162629 -0.065345 0.084731 -1.320519 5.067001 -26.327552 18.276773 44.119504 -44.861731 83.518078 43.082084 0.000000 0.000000 0.000000 
3.186260 84.752762 0.159901 0.000000 0.000000 0.000000 18.559581 29.854190 -4.888918 -23.868012 21.327563 19.907575 47.525003 -2.647182 0.848883 -6.160047 -3.164271 -6.086797 0.000000 0.000000 0.000000 -4.285302 54.255577 -0.706856 -36.819484 12.847061 -13.703594 42.570459 11.123127 -1.515065 -11.572045 7.897935 17.090796 0.000000 0.000000 0.000000 1.450875 20.420630 -1.077014 3.161408 40.695585 -4.848208 3.382309 -1.990013 -0.875384 1.291357 -0.472790 -0.652169 0.000000 0.000000 0.000000 2.248255 -2.052219 -0.468365 -1.227644 -0.999282 0.333804 0.000000 0.000000 0.000000 3.681805 -0.688608 -0.277463 0.479874 -8.466825 -3.616151 -27.096160 -42.481198 -62.001459 136.350725 -88.367574 132.530026 0.000000 0.000000 0.000000 2.691033 -1.086015 -0.077944 0.093159 -1.374604 5.130377 -26.116606 18.897547 43.465903 -47.990419 83.995146 46.205632 0.000000 0.000000 0.000000 
3.352926 86.032845 0.008474 0.000000 0.000000 0.000000 18.201558 29.004812 -4.799176 -23.895055 21.063390 19.606656 48.264302 -2.359908 0.877840 -5.272019 -2.963309 -5.873757 0.000000 0.000000 0.000000 -4.543423 53.548635 -0.465763 -36.968662 12.607272 -13.571095 42.994081 10.819856 -1.657633 -10.980875 7.836579 16.662743 0.000000 0.000000 0.000000 1.550714 20.064118 -1.070840 2.992431 39.356646 -4.629373 3.332762 -1.928114 -1.003906 1.308592 -0.423267 -0.691040 0.000000 0.000000 0.000000 2.364388 -2.013267 -0.459956 -1.215588 -0.995533 0.388127 0.000000 0.000000 0.000000 3.657291 -0.611948 -0.281001 0.380399 -8.165664 -3.349452 -27.451432 -43.037005 -61.848736 149.506065 -87.563134 145.805524 0.000000 0.000000 0.000000 2.777647 -0.970822 -0.086729 0.096993 -1.403337 5.230430 -25.888825 19.706508 42.586124 -52.047445 84.526644 50.256846 0.000000 0.000000 0.000000 
3.557154 87.586525 -0.174761 0.000000 0.000000 0.000000 17.718211 27.802297 -4.649585 -24.042590 20.680799 19.276500 49.313757 -2.009627 0.904111 -4.081864 -2.711636 -5.620163 0.000000 0.000000 0.000000 -4.789293 52.409162 -0.209819 -37.097367 12.221288 -13.429365 43.424212 10.395330 -1.795310 -10.316817 7.672355 16.139525 0.000000 0.000000 0.000000 1.691731 19.573258 -1.039170 2.783214 37.799800 -4.385587 3.279202 -1.814582 -1.120884 1.346217 -0.361659 -0.727519 0.000000 0.000000 0.000000 2.482629 -1.945656 -0.440412 -1.204711 -0.988927 0.452959 0.000000 0.000000 0.000000 3.620740 -0.515603 -0.278779 0.265457 -7.800574 -3.026073 -27.774321 -43.608432 -61.578718 156.709579 -86.600966 153.162716 0.000000 0.000000 0.000000 2.891784 -0.818866 -0.084534 0.091415 -1.367977 5.371525 -25.717296 20.591772 41.580238 -56.022325 84.990974 54.222792 0.000000 0.000000 0.000000 
